<svg height="360.33426" viewBox="0 0 468.74997 337.81334" width="500" xmlns="http://www.w3.org/2000/svg" xmlns:xlink="http://www.w3.org/1999/xlink"><linearGradient id="a" gradientUnits="userSpaceOnUse" x1="101.256333" x2="360.374053" y1="168.906667" y2="168.906667"><stop offset="0" stop-color="#7eb3df"/><stop offset="1" stop-color="#4d6fb6"/></linearGradient><path d="m23.448159 286.65372c4.47647 0 9.1661.21305 13.64256 0 8.52661-.63949 17.05319-2.34482 25.36663-4.47647 16.41371-4.47646 31.76159-12.15041 45.190991-22.59549 3.83697-2.98432 7.67395-6.18179 11.29775-9.59243 7.67394-7.67395 14.28206-16.41371 19.61119-25.79298 4.68963-8.31344 8.10027-17.26637 10.65825-26.43247.21305-.63949.21305-1.49215.42633-2.13165h-8.31343c-8.31344 0-16.84005 0-25.15348 0-7.03445 0-13.85573-.85266-20.67702-2.34481-.63949-.21306-1.27899-.42633-1.91848-.42633-.42633-.21306-.6395-.42633-.85266-.6395 1.91848-4.2633 3.6238-8.31344 5.32912-12.57674l13.00307-30.05628c.42633-1.49215 1.06583-2.77114 1.91849-4.05013.85266-.85266 2.13165-1.27899 3.41064-1.27899 10.44509-.21305 20.67701 0 31.1221 0h2.77115c-.42633-1.70532-.42633-2.98431-.85266-4.47647-3.83697-14.49522-10.44509-27.9246-19.61119-39.64868-4.47647-5.755463-9.37926-11.084583-14.70839-16.200553-6.60812-6.18178-13.85573-11.51091-21.956-15.98738-8.31344-4.68963-17.053211-8.5266-26.006141-11.51091-7.460779-2.34482-15.134699-4.05014-23.021808-5.11596-6.181791-.6395-12.150411-.85266-18.332201-1.27899-1.492151 0-2.98431-.21305-4.476461-.42633-.639499-.21306-1.06583-.6395-1.278989-1.27899-2.131651-4.9028-4.2633-9.59243-6.394949-14.49523-2.55799-5.755457-4.902801-11.510914-7.460781-17.053206-1.91849-4.689632-4.05014-9.1660993-6.18179-14.0688963 1.49216-.42633 2.98431-.85266 4.47647-1.27899 9.379261-1.27899097 18.97169-1.70532097 28.56412-1.27899097 15.134721.42633 30.26942 2.77114597 45.19097 6.60811797 9.379269 2.557981 18.758531 5.7554573 27.71146 9.5924283 12.57674 5.329128 24.51399 11.937245 35.59857 19.824357 4.9028 3.6238 9.80559 7.46077 14.49523 11.29775 2.13165 1.70532 4.2633 3.6238 6.39495 5.54229 10.65825 10.23192 20.03752 21.956 27.92462 34.53274 7.88711 12.576743 13.64257 26.219283 17.47954 40.501343 1.27899 4.68963 2.13165 9.59243 3.19748 14.28206.21305.6395.85266 1.27899 1.70532 1.27899h43.27251c.85266-3.41064 1.49215-6.82128 2.13165-10.23192 2.55798-10.01876 5.96862-19.61119 10.23192-28.77726 3.41064-7.673953 7.67395-15.134723 12.57674-21.956013 4.47647-6.18178 9.1661-12.36357 14.28206-18.11903 3.83697-4.47646 7.88711-8.73977 12.15041-12.57674 8.95294-8.10027 18.54536-15.34788 28.99045-21.742836 10.65826-6.608118 21.74284-11.937245 33.46692-16.200546 8.10027-2.771147 16.20055-5.3291273 24.30082-7.4607783 6.18179-1.492156 12.15039-2.557981 18.54534-3.410642 5.11596-.85266 10.44509-1.27899 15.77421-1.70532 3.41065-.213052 6.60812-.42633 10.01876-.42633 5.11597 0 10.01876-.21305197 14.92156 0 4.9028.213051 9.80559 1.27899 14.70839 2.13165.21305 0 .21305.213052.6395.639496l-3.62381 8.5266033c-3.83697 8.952934-7.67394 17.905867-11.72408 27.071963-1.49216 3.19748-2.98431 6.39495-4.2633 9.8056-.85266 2.13165-2.98431 1.27899-4.47647 1.70532-1.27899.21305-2.34481.21305-3.62381 0-13.4294.21305-26.64563 2.13165-39.43551 5.75545-8.10028 2.34482-15.98738 5.32913-23.44816 8.95294-9.1661 4.47646-17.6927 10.01876-25.57981 16.62687-3.19748 2.77115-6.82128 5.5423-9.80559 8.73977-7.67395 7.67394-14.28206 16.413713-19.61119 26.006123-4.2633 7.88711-7.67394 16.20054-10.23193 24.94031-.21305.6395-.21305 1.49216-.42633 2.13165h2.34482c11.08458 0 22.38233-.21305 33.46692 0 6.60812 0 13.21623 1.06583 19.61118 3.19748.21306.21305.42634.21305.6395.42633l-6.18179 14.06889c-4.2633 10.01876-8.73977 20.03752-13.00307 30.26945-1.27899 2.98431-2.13165 3.6238-5.54229 3.6238h-31.1221c.85266 2.98431 1.49215 5.54229 2.34482 8.10027 2.98431 8.95294 7.24761 17.47954 12.57673 25.36665 3.19748 4.68963 6.60812 8.95293 10.23193 13.21623 2.13165 2.55799 4.47647 5.11597 6.82128 7.24762 7.88711 7.67394 16.84004 14.28206 26.43247 19.61118 8.10027 4.68964 16.84004 8.52661 25.79298 11.51092 8.52658 2.98431 17.47951 4.9028 26.64561 5.75546 5.54229.42633 11.29775.85266 16.84004 1.27899 2.13165.21305 4.2633.21305 6.39495.42633.42633.21305.85266.42633 1.06583.85266 3.6238 8.5266 7.24761 17.0532 11.08458 25.57981 2.98431 6.82128 5.96862 13.64256 9.1661 20.89017-2.98431.6395-5.75546 1.27899-8.73977 1.49216-7.24761.42633-14.70839.85266-21.956.85266-6.60812 0-13.21624-.6395-19.61119-1.49216-8.73977-1.27899-17.69268-2.77114-26.43245-4.68963-10.44509-2.55798-20.67701-5.96862-30.69577-10.23192-11.93724-5.11596-23.02183-11.29775-33.68008-18.75853-5.54229-4.05013-10.87142-8.31344-16.20055-12.57674-3.41064-2.77114-6.82128-5.96862-9.80559-9.1661-6.82128-7.03444-13.21624-14.49522-18.75853-22.59549-5.32912-7.67395-10.01876-15.77422-14.06889-24.30082-4.9028-10.23193-8.31344-21.10335-10.65826-32.18793-.42633-1.06583-.63949-2.34482-.85266-3.41064 0-2.13165-1.06582-2.55798-2.98431-2.55798-13.64256 0-27.07196 0-40.71453 0h-2.34481c-2.13165 11.51091-5.5423 22.80866-10.23193 33.68008-3.83697 9.1661-8.5266 17.90587-14.28206 26.00614-4.47646 6.18179-9.1661 12.36357-14.28206 18.11903-3.6238 4.47647-7.67394 8.5266-11.93724 12.36358-6.60812 5.75545-13.64257 11.08458-20.67702 16.41371-8.5266 5.96862-17.47953 11.29775-26.8588 15.56105-11.29774 5.32912-23.02182 9.59243-34.95907 12.57674-6.82128 1.70532-13.64256 2.98431-20.46385 4.05013-6.60809 1.06583-13.21621 1.70532-19.82433 2.34482-3.83697.21305-7.67394.21305-11.29775 0-5.54229 0-11.08458-.21305-16.41371-.42633-1.91848-.21305-3.83697-.42633-5.75545-.85266-1.06583-.21305-1.49216-.6395-.85266-1.91849 4.2633-9.80559 8.73976-19.61118 13.00307-29.41678 2.55798-5.96862 4.90279-11.51091 7.673939-17.6927z" fill="url(#a)"/></svg>